STARTFONT 2.1
COMMENT
COMMENT Converted from OpenType font "manrope-regular.otf" by "otf2bdf 3.0".
COMMENT
FONT -FreeType-Manrope-Medium-R-Normal--46-330-100-100-P-206-ISO10646-1
SIZE 33 100 100
FONTBOUNDINGBOX 43 56 -1 -11
STARTPROPERTIES 19
FOUNDRY "FreeType"
FAMILY_NAME "Manrope"
WEIGHT_NAME "Medium"
SLANT "R"
SETWIDTH_NAME "Normal"
ADD_STYLE_NAME ""
PIXEL_SIZE 46
POINT_SIZE 330
RESOLUTION_X 100
RESOLUTION_Y 100
SPACING "P"
AVERAGE_WIDTH 206
CHARSET_REGISTRY "ISO10646"
CHARSET_ENCODING "1"
FONT_ASCENT 49
FONT_DESCENT 13
COPYRIGHT "Copyright 2019-2021 The Manrope Project Authors (https://github.com/sharanda/manrope)"
_OTF_FONTFILE "manrope-regular.otf"
_OTF_PSNAME "Manrope-Regular"
ENDPROPERTIES
CHARS 191
STARTCHAR 0020
ENCODING 32
SWIDTH 196 0
DWIDTH 9 0
BBX 0 0 0 0
BITMAP
ENDCHAR
STARTCHAR 0021
ENCODING 33
SWIDTH 305 0
DWIDTH 14 0
BBX 4 33 5 0
BITMAP
F0
F0
F0
F0
F0
F0
F0
F0
F0
F0
F0
F0
F0
F0
F0
F0
F0
F0
F0
F0
F0
F0
F0
F0
F0
00
00
00
00
F0
F0
F0
F0
ENDCHAR
STARTCHAR 0022
ENCODING 34
SWIDTH 392 0
DWIDTH 18 0
BBX 10 8 3 25
BITMAP
E1C0
E1C0
E1C0
E1C0
E1C0
E1C0
E1C0
E1C0
ENDCHAR
STARTCHAR 0023
ENCODING 35
SWIDTH 916 0
DWIDTH 42 0
BBX 36 33 3 0
BITMAP
0001C03800
0001C03800
0001C03800
0003C07800
0003807000
0003807000
000780F000
000780F000
000700E000
1FFFFFFFF0
1FFFFFFFF0
1FFFFFFFF0
000E01C000
000E01C000
001E03C000
001C038000
001C038000
001C038000
003C078000
0038070000
FFFFFFFF80
FFFFFFFF80
FFFFFFFF80
00700E0000
00700E0000
00F01E0000
00F01E0000
00E01C0000
00E01C0000
01E03C0000
01C0380000
01C0380000
01C0380000
ENDCHAR
STARTCHAR 0024
ENCODING 36
SWIDTH 589 0
DWIDTH 27 0
BBX 23 41 2 -4
BITMAP
003800
003800
003800
003800
01FF00
07FFC0
1FFFE0
3F83F8
3E00F8
78003C
78003C
70001E
70000E
70000C
780000
780000
3E0000
1F8000
0FF800
03FF00
00FFE0
000FF0
0001FC
00003C
00001E
00000E
00000E
60000E
E0000E
F0000E
F0001E
78001E
7E007C
3FC1F8
0FFFF0
07FFE0
00FF00
003800
003800
003800
003800
ENDCHAR
STARTCHAR 0025
ENCODING 37
SWIDTH 894 0
DWIDTH 41 0
BBX 36 33 3 0
BITMAP
07E0000100
1FF8000380
3FFC0007C0
7C3E000F80
700E001F00
E00F003E00
E007007C00
E00700F800
E00701F000
E00703E000
F00F07C000
700E0F8000
7C3E1F0000
3FFC3E0000
1FF87C0000
07E0F80000
0001F00000
0003E07C00
0007C1FF00
000F87FF80
001F0787C0
003E0F01E0
007C1E00E0
00F81C00E0
01F01C00F0
03E01C00F0
07C01C00E0
0F801E00E0
1F000F01E0
3E000F87C0
7C0007FF80
380003FF00
1000007C00
ENDCHAR
STARTCHAR 0026
ENCODING 38
SWIDTH 654 0
DWIDTH 30 0
BBX 27 33 2 0
BITMAP
00FE0000
03FFC000
07FFE000
0FC3F000
1F00F800
1E007800
3C000000
3C000000
3C000000
3C000000
3C000000
1C000000
1E000000
0F000000
07800000
07C00000
1FF00000
3FF80F00
3C7C0F00
781E0F00
700F0F00
F0078F00
F003CF00
F001EF00
F000FE00
F0007E00
78001E00
78003F00
3E007F80
1F81FBC0
0FFFF1E0
07FFE0E0
00FF0040
ENDCHAR
STARTCHAR 0027
ENCODING 39
SWIDTH 218 0
DWIDTH 10 0
BBX 3 8 3 25
BITMAP
E0
E0
E0
E0
E0
E0
E0
E0
ENDCHAR
STARTCHAR 0028
ENCODING 40
SWIDTH 436 0
DWIDTH 20 0
BBX 11 46 6 -7
BITMAP
00E0
01E0
01E0
03C0
0780
0700
0F00
0E00
1E00
1C00
1C00
3C00
3800
3800
7800
7000
7000
7000
7000
7000
F000
F000
F000
F000
F000
F000
7000
7000
7000
7000
7000
7800
3800
3800
3C00
1C00
1E00
0E00
0F00
0700
0780
03C0
03C0
01E0
00E0
0040
ENDCHAR
STARTCHAR 0029
ENCODING 41
SWIDTH 436 0
DWIDTH 20 0
BBX 11 47 2 -8
BITMAP
2000
6000
F000
7800
3C00
3C00
1E00
0E00
0F00
0700
0780
0380
0380
03C0
01C0
01C0
01C0
01E0
00E0
00E0
00E0
00E0
00E0
00E0
00E0
00E0
00E0
00E0
00E0
01E0
01C0
01C0
01C0
03C0
0380
0380
0780
0700
0F00
0E00
1E00
1C00
3C00
7800
F000
7000
2000
ENDCHAR
STARTCHAR 002A
ENCODING 42
SWIDTH 436 0
DWIDTH 20 0
BBX 15 15 2 18
BITMAP
0380
0380
0380
0380
C384
FBBE
FFFE
7FF8
07C0
0FC0
0FE0
1CF0
3C78
3838
1030
ENDCHAR
STARTCHAR 002B
ENCODING 43
SWIDTH 567 0
DWIDTH 26 0
BBX 21 21 3 6
BITMAP
007000
007000
007000
007000
007000
007000
007000
007000
007000
FFFFF8
FFFFF8
FFFFF8
007000
007000
007000
007000
007000
007000
007000
007000
007000
ENDCHAR
STARTCHAR 002C
ENCODING 44
SWIDTH 261 0
DWIDTH 12 0
BBX 4 10 3 -5
BITMAP
F0
F0
F0
F0
F0
30
30
60
E0
C0
ENDCHAR
STARTCHAR 002D
ENCODING 45
SWIDTH 414 0
DWIDTH 19 0
BBX 14 3 3 13
BITMAP
FFFC
FFFC
FFFC
ENDCHAR
STARTCHAR 002E
ENCODING 46
SWIDTH 261 0
DWIDTH 12 0
BBX 4 4 4 0
BITMAP
F0
F0
F0
F0
ENDCHAR
STARTCHAR 002F
ENCODING 47
SWIDTH 392 0
DWIDTH 18 0
BBX 12 33 3 0
BITMAP
00F0
00F0
00E0
00E0
01E0
01E0
01C0
01C0
03C0
0380
0380
0780
0780
0700
0700
0F00
0F00
0E00
0E00
1E00
1E00
1C00
1C00
3C00
3800
3800
7800
7800
7000
7000
F000
F000
E000
ENDCHAR
STARTCHAR 0030
ENCODING 48
SWIDTH 610 0
DWIDTH 28 0
BBX 22 33 3 0
BITMAP
00FC00
07FF80
0FFFC0
1F87E0
3E01F0
7C00F8
780078
700038
F0003C
F0003C
F0003C
F0003C
F0003C
F0003C
F0003C
F0003C
F0003C
F0003C
F0003C
F0003C
F0003C
F0003C
F0003C
F0003C
F0003C
700038
780078
7C00F8
3E01F0
1F87E0
0FFFC0
07FF80
01FC00
ENDCHAR
STARTCHAR 0031
ENCODING 49
SWIDTH 392 0
DWIDTH 18 0
BBX 9 33 3 0
BITMAP
0780
1F80
3F80
FF80
FB80
E380
8380
0380
0380
0380
0380
0380
0380
0380
0380
0380
0380
0380
0380
0380
0380
0380
0380
0380
0380
0380
0380
0380
0380
0380
0380
0380
0380
ENDCHAR
STARTCHAR 0032
ENCODING 50
SWIDTH 567 0
DWIDTH 26 0
BBX 22 33 2 0
BITMAP
00FE00
07FF80
0FFFC0
1F87E0
3E01F0
3C00F8
780078
700038
70003C
F0003C
00003C
00003C
00003C
000038
000078
0000F8
0000F0
0003E0
0007C0
000F80
001F00
003E00
007C00
00F800
03E000
07C000
0F8000
1F0000
3E0000
7C0000
FFFFFC
FFFFFC
FFFFFC
ENDCHAR
STARTCHAR 0033
ENCODING 51
SWIDTH 545 0
DWIDTH 25 0
BBX 21 33 2 0
BITMAP
7FFFF0
7FFFF0
7FFFF0
0000F0
0003E0
0007C0
000F80
001F00
003C00
007800
00F000
01E000
07FC00
07FF00
07FF80
0207C0
0001E0
0000F0
0000F0
000070
000070
000078
000078
000078
000070
600070
F000F0
F801E0
7C03E0
3F0FC0
1FFF80
0FFF00
01FC00
ENDCHAR
STARTCHAR 0034
ENCODING 52
SWIDTH 589 0
DWIDTH 27 0
BBX 23 33 2 0
BITMAP
001E00
001C00
003C00
003800
007800
007800
00F000
00F000
01E000
01E000
03C000
03C000
038000
078000
0700E0
0F00E0
0E00E0
1E00E0
1E00E0
3C00E0
3C00E0
7800E0
7800E0
F000E0
FFFFFE
FFFFFE
FFFFFE
0000E0
0000E0
0000E0
0000E0
0000E0
0000E0
ENDCHAR
STARTCHAR 0035
ENCODING 53
SWIDTH 567 0
DWIDTH 26 0
BBX 22 33 2 0
BITMAP
3FFFF0
3FFFF0
3FFFF0
380000
380000
380000
380000
380000
380000
380000
380000
380000
78FE00
7BFF80
7FFFE0
7F03F0
7C00F0
380078
000038
00003C
00001C
00001C
00001C
00001C
30003C
F0003C
780078
780078
3E01F0
1FC7E0
0FFFC0
07FF80
00FC00
ENDCHAR
STARTCHAR 0036
ENCODING 54
SWIDTH 610 0
DWIDTH 28 0
BBX 23 33 3 0
BITMAP
00FE00
03FF80
0FFFE0
1FC3F0
3E00F8
3C0070
780000
700000
F00000
F00000
F00000
F00000
F0FE00
F3FF80
F7FFE0
FF83F0
FE00F8
FC0078
F8003C
F0001C
F0001C
F0001E
F0001E
F0001C
F0001C
70003C
78003C
3C0078
3E00F0
1F87F0
0FFFE0
03FF80
00FE00
ENDCHAR
STARTCHAR 0037
ENCODING 55
SWIDTH 501 0
DWIDTH 23 0
BBX 19 33 2 0
BITMAP
FFFFE0
FFFFE0
FFFFE0
0001E0
0001C0
0003C0
000380
000780
000780
000700
000F00
000E00
001E00
001E00
001C00
003C00
003800
007800
007800
00F000
00F000
00E000
01E000
01C000
03C000
03C000
038000
078000
070000
0F0000
0F0000
0E0000
1E0000
ENDCHAR
STARTCHAR 0038
ENCODING 56
SWIDTH 589 0
DWIDTH 27 0
BBX 21 33 3 0
BITMAP
01FC00
0FFF00
1FFF80
3F8FC0
7C01E0
7800F0
7000F0
7000F0
7000F0
7000F0
7000F0
7800E0
3C01E0
3F0FC0
1FFF80
0FFF00
1FFFC0
3E07E0
7801F0
F000F0
F00070
E00078
E00078
E00078
E00078
F00078
F00070
7800F0
7C01E0
3F0FE0
1FFFC0
0FFF00
01FC00
ENDCHAR
STARTCHAR 0039
ENCODING 57
SWIDTH 610 0
DWIDTH 28 0
BBX 22 33 3 0
BITMAP
00FC00
07FF80
0FFFC0
1F87E0
3E01F0
780078
780078
F0003C
F0003C
E0001C
E0001C
E0001C
E0001C
F0003C
70003C
78007C
3C00FC
3F03FC
0FFFDC
07FF1C
01FC1C
00001C
00001C
00001C
00003C
00003C
000078
180078
3C01F0
1F87E0
0FFFC0
07FF80
01FC00
ENDCHAR
STARTCHAR 003A
ENCODING 58
SWIDTH 305 0
DWIDTH 14 0
BBX 4 17 5 4
BITMAP
F0
F0
F0
F0
00
00
00
00
00
00
00
00
00
F0
F0
F0
F0
ENDCHAR
STARTCHAR 003B
ENCODING 59
SWIDTH 305 0
DWIDTH 14 0
BBX 4 30 5 -5
BITMAP
F0
F0
F0
F0
00
00
00
00
00
00
00
00
00
00
00
00
00
00
00
00
F0
F0
F0
F0
F0
30
30
30
E0
C0
ENDCHAR
STARTCHAR 003C
ENCODING 60
SWIDTH 610 0
DWIDTH 28 0
BBX 12 21 7 3
BITMAP
0020
0070
00F0
01E0
03C0
0780
0F00
1E00
3C00
7800
F000
F000
7800
3C00
1E00
0F00
0780
03C0
01E0
00F0
0060
ENDCHAR
STARTCHAR 003D
ENCODING 61
SWIDTH 741 0
DWIDTH 34 0
BBX 24 11 5 11
BITMAP
FFFFFF
FFFFFF
FFFFFF
000000
000000
000000
000000
000000
FFFFFF
FFFFFF
FFFFFF
ENDCHAR
STARTCHAR 003E
ENCODING 62
SWIDTH 610 0
DWIDTH 28 0
BBX 12 21 9 3
BITMAP
6000
F000
F800
7C00
3E00
1F00
0F80
07C0
03E0
01F0
00F0
00F0
01E0
03C0
0780
0F00
1E00
3C00
7800
F000
6000
ENDCHAR
STARTCHAR 003F
ENCODING 63
SWIDTH 523 0
DWIDTH 24 0
BBX 20 33 2 0
BITMAP
01FC00
0FFF00
1FFF80
3F0FC0
7C03E0
7801E0
7000E0
F000F0
F000F0
0000F0
0000E0
0000E0
0001E0
0003C0
0007C0
001F80
003E00
007C00
007800
00F000
00F000
00E000
00E000
00E000
000000
000000
000000
000000
000000
00E000
00E000
00E000
00E000
ENDCHAR
STARTCHAR 0040
ENCODING 64
SWIDTH 894 0
DWIDTH 41 0
BBX 34 35 4 -5
BITMAP
0007F80000
003FFF0000
00FFFFC000
03F807F000
07C000F800
0F80007C00
1E00001E00
1C00000E00
3C00000F00
7800000700
7000000780
7007E00380
F00FFE0380
E01FFE03C0
E03C1E01C0
E0380E01C0
E0700E01C0
E0700E01C0
E0700E01C0
E0700E0380
E0780E0380
E0381F0380
E03F7F8700
F01FFFFF00
7007F3FE00
780000F800
3800000000
3C00000000
1E00000000
0F80000000
07C0008000
03F8078000
00FFFF8000
003FFF0000
0007F00000
ENDCHAR
STARTCHAR 0041
ENCODING 65
SWIDTH 632 0
DWIDTH 29 0
BBX 27 33 1 0
BITMAP
001F0000
001F0000
003F8000
003F8000
003B8000
007BC000
007BC000
0071C000
00F1E000
00F1E000
00E0E000
01E0F000
01C0F000
01C07000
03C07800
03803800
03803800
07803C00
07001C00
07001C00
0F001E00
0E000E00
0FFFFF00
1FFFFF00
1FFFFF00
3C000780
3C000780
38000380
780003C0
780003C0
700001C0
F00001E0
F00001E0
ENDCHAR
STARTCHAR 0042
ENCODING 66
SWIDTH 610 0
DWIDTH 28 0
BBX 24 33 3 0
BITMAP
FFFF00
FFFFC0
FFFFF0
F001F0
F00078
F0003C
F0003C
F0001C
F0001C
F0001C
F0003C
F0003C
F00078
F001F0
FFFFF0
FFFFC0
FFFFF0
F000F8
F0003C
F0001E
F0001E
F0000E
F0000F
F0000F
F0000F
F0000F
F0000E
F0001E
F0003E
F001FC
FFFFF8
FFFFF0
FFFF80
ENDCHAR
STARTCHAR 0043
ENCODING 67
SWIDTH 720 0
DWIDTH 33 0
BBX 30 33 1 0
BITMAP
001FF000
00FFFE00
01FFFF00
07F83FC0
0FC007E0
0F0001E0
1E0000F0
3C000078
3C000078
7800003C
7800003C
78000000
70000000
70000000
F0000000
F0000000
F0000000
F0000000
F0000000
70000000
70000000
70000000
7800003C
7800003C
3C000078
3C000078
1E0000F0
0F0001F0
0FC007E0
07F83FC0
01FFFF00
00FFFE00
001FF000
ENDCHAR
STARTCHAR 0044
ENCODING 68
SWIDTH 676 0
DWIDTH 31 0
BBX 26 33 3 0
BITMAP
FFFF0000
FFFFC000
FFFFF000
F003F800
F0007C00
F0003E00
F0001E00
F0000F00
F0000700
F0000780
F0000780
F0000380
F0000380
F00003C0
F00003C0
F00003C0
F00003C0
F00003C0
F00003C0
F00003C0
F0000380
F0000380
F0000780
F0000780
F0000700
F0000F00
F0001E00
F0003E00
F0007C00
F003F800
FFFFF000
FFFFE000
FFFF0000
ENDCHAR
STARTCHAR 0045
ENCODING 69
SWIDTH 567 0
DWIDTH 26 0
BBX 21 33 3 0
BITMAP
FFFFF8
FFFFF8
FFFFF8
F00000
F00000
F00000
F00000
F00000
F00000
F00000
F00000
F00000
F00000
F00000
F00000
FFFFC0
FFFFC0
FFFFC0
F00000
F00000
F00000
F00000
F00000
F00000
F00000
F00000
F00000
F00000
F00000
F00000
FFFFF8
FFFFF8
FFFFF8
ENDCHAR
STARTCHAR 0046
ENCODING 70
SWIDTH 501 0
DWIDTH 23 0
BBX 19 33 3 0
BITMAP
FFFFE0
FFFFE0
FFFFE0
F00000
F00000
F00000
F00000
F00000
F00000
F00000
F00000
F00000
F00000
F00000
F00000
FFFF00
FFFF00
FFFF00
F00000
F00000
F00000
F00000
F00000
F00000
F00000
F00000
F00000
F00000
F00000
F00000
F00000
F00000
F00000
ENDCHAR
STARTCHAR 0047
ENCODING 71
SWIDTH 698 0
DWIDTH 32 0
BBX 30 33 1 0
BITMAP
001FF000
00FFFC00
01FFFF00
07F87F80
0FC007C0
0F0003E0
1E0001F0
3C0000F0
3C000078
78000000
78000000
78000000
70000000
70000000
F0000000
F0000000
F0001FFC
F0001FFC
F0001FFC
7000003C
7000003C
7800003C
78000038
78000078
3C000078
3C0000F0
1E0000F0
0F0001E0
0FC007E0
07F81FC0
01FFFF00
00FFFE00
001FF000
ENDCHAR
STARTCHAR 0048
ENCODING 72
SWIDTH 676 0
DWIDTH 31 0
BBX 25 33 3 0
BITMAP
F0000380
F0000380
F0000380
F0000380
F0000380
F0000380
F0000380
F0000380
F0000380
F0000380
F0000380
F0000380
F0000380
F0000380
F0000380
FFFFFF80
FFFFFF80
FFFFFF80
F0000380
F0000380
F0000380
F0000380
F0000380
F0000380
F0000380
F0000380
F0000380
F0000380
F0000380
F0000380
F0000380
F0000380
F0000380
ENDCHAR
STARTCHAR 0049
ENCODING 73
SWIDTH 240 0
DWIDTH 11 0
BBX 3 33 4 0
BITMAP
E0
E0
E0
E0
E0
E0
E0
E0
E0
E0
E0
E0
E0
E0
E0
E0
E0
E0
E0
E0
E0
E0
E0
E0
E0
E0
E0
E0
E0
E0
E0
E0
E0
ENDCHAR
STARTCHAR 004A
ENCODING 74
SWIDTH 458 0
DWIDTH 21 0
BBX 18 33 0 0
BITMAP
0003C0
0003C0
0003C0
0003C0
0003C0
0003C0
0003C0
0003C0
0003C0
0003C0
0003C0
0003C0
0003C0
0003C0
0003C0
0003C0
0003C0
0003C0
0003C0
0003C0
0003C0
0003C0
0003C0
0003C0
0003C0
000380
F00380
F00780
780F80
7E3F00
3FFE00
0FFC00
03F000
ENDCHAR
STARTCHAR 004B
ENCODING 75
SWIDTH 589 0
DWIDTH 27 0
BBX 24 33 3 0
BITMAP
F0003C
F0007C
F000F8
F001F0
F003E0
F007C0
F00F80
F01F00
F03E00
F07C00
F0F800
F1F000
F1E000
F3C000
F78000
FF0000
FF0000
F78000
F3C000
F3E000
F1F000
F0F800
F07C00
F03E00
F01F00
F00F80
F007C0
F003E0
F001F0
F000F8
F0007C
F0003E
F0001F
ENDCHAR
STARTCHAR 004C
ENCODING 76
SWIDTH 501 0
DWIDTH 23 0
BBX 19 33 4 0
BITMAP
E00000
E00000
E00000
E00000
E00000
E00000
E00000
E00000
E00000
E00000
E00000
E00000
E00000
E00000
E00000
E00000
E00000
E00000
E00000
E00000
E00000
E00000
E00000
E00000
E00000
E00000
E00000
E00000
E00000
E00000
FFFFE0
FFFFE0
FFFFE0
ENDCHAR
STARTCHAR 004D
ENCODING 77
SWIDTH 850 0
DWIDTH 39 0
BBX 32 33 3 0
BITMAP
F0000007
F000000F
F000000F
F800000F
F800001F
FC00001F
FC00003F
FE00003F
EE00007F
EF000077
E70000F7
E78000E7
E38001E7
E3C001C7
E1C003C7
E1E00387
E0E00387
E0E00707
E0F00707
E0700F07
E0780E07
E0381E07
E03C1C07
E01C3C07
E01E3807
E00E7807
E00F7007
E007F007
E007E007
E003E007
E003E007
E003C007
E001C007
ENDCHAR
STARTCHAR 004E
ENCODING 78
SWIDTH 676 0
DWIDTH 31 0
BBX 25 33 3 0
BITMAP
F0000380
F8000380
F8000380
FC000380
FE000380
FE000380
FF000380
F7800380
F7800380
F3C00380
F1E00380
F1E00380
F0F00380
F0780380
F0780380
F03C0380
F01E0380
F01E0380
F00F0380
F0078380
F0078380
F003C380
F001E380
F001E380
F000F380
F0007B80
F0007B80
F0003F80
F0001F80
F0001F80
F0000F80
F0000780
F0000780
ENDCHAR
STARTCHAR 004F
ENCODING 79
SWIDTH 720 0
DWIDTH 33 0
BBX 31 33 1 0
BITMAP
001FF000
00FFFE00
01FFFF00
07F83FC0
0FC007E0
0F0001F0
1E0000F0
3C000078
3C000078
7800003C
7800003C
7800001C
7000001C
7000001E
F000001E
F000001E
F000001E
F000001E
F000001E
7000001E
7000001C
7800001C
7800003C
7800003C
3C000078
3C000078
1E0000F0
0F0001F0
0FC007E0
07F83FC0
01FFFF80
00FFFE00
001FF000
ENDCHAR
STARTCHAR 0050
ENCODING 80
SWIDTH 610 0
DWIDTH 28 0
BBX 23 33 3 0
BITMAP
FFFF80
FFFFE0
FFFFF0
F001F8
F0007C
F0003C
F0001E
F0001E
F0000E
F0000E
F0000E
F0000E
F0001E
F0001E
F0003C
F0003C
F000F8
FFFFF0
FFFFE0
FFFF80
F00000
F00000
F00000
F00000
F00000
F00000
F00000
F00000
F00000
F00000
F00000
F00000
F00000
ENDCHAR
STARTCHAR 0051
ENCODING 81
SWIDTH 720 0
DWIDTH 33 0
BBX 31 33 1 0
BITMAP
001FF000
00FFFE00
01FFFF00
07F83FC0
0FC007E0
0F0001F0
1E0000F0
3C000078
3C000078
7800003C
7800003C
7800001C
7000001C
7000001E
F000001E
F000001E
F000001E
F000001E
F000001E
7000001E
7000001C
7800001C
7800043C
78000E3C
3C001F78
3C000FF8
1E0007F0
0F0003F0
0FC007F0
07F83FF8
01FFFF3C
00FFFE1C
001FF008
ENDCHAR
STARTCHAR 0052
ENCODING 82
SWIDTH 632 0
DWIDTH 29 0
BBX 24 33 3 0
BITMAP
FFFF80
FFFFE0
FFFFF0
F001F8
F0007C
F0003C
F0001E
F0001E
F0000E
F0000E
F0000E
F0000E
F0001E
F0001E
F0003C
F0003C
F000F8
FFFFF0
FFFFE0
FFFFC0
F003C0
F001E0
F001E0
F000F0
F000F0
F00070
F00078
F00038
F0003C
F0001C
F0001E
F0001E
F0000F
ENDCHAR
STARTCHAR 0053
ENCODING 83
SWIDTH 610 0
DWIDTH 28 0
BBX 25 33 2 0
BITMAP
00FF0000
07FFE000
0FFFF000
1FC3F800
3E007C00
7C001E00
78001F00
78000F00
70000700
70000700
78000000
7C000000
3E000000
1FC00000
0FF80000
03FF8000
007FF000
000FFC00
0000FE00
00003F00
00000F00
00000700
00000780
60000780
E0000780
F0000780
F8000F00
7C000F00
3E003E00
1FE1FC00
0FFFF800
03FFF000
007F8000
ENDCHAR
STARTCHAR 0054
ENCODING 84
SWIDTH 589 0
DWIDTH 27 0
BBX 27 33 0 0
BITMAP
FFFFFFE0
FFFFFFE0
FFFFFFE0
000E0000
000E0000
000E0000
000E0000
000E0000
000E0000
000E0000
000E0000
000E0000
000E0000
000E0000
000E0000
000E0000
000E0000
000E0000
000E0000
000E0000
000E0000
000E0000
000E0000
000E0000
000E0000
000E0000
000E0000
000E0000
000E0000
000E0000
000E0000
000E0000
000E0000
ENDCHAR
STARTCHAR 0055
ENCODING 85
SWIDTH 698 0
DWIDTH 32 0
BBX 26 33 3 0
BITMAP
F00001C0
F00001C0
F00001C0
F00001C0
F00001C0
F00001C0
F00001C0
F00001C0
F00001C0
F00001C0
F00001C0
F00001C0
F00001C0
F00001C0
F00001C0
F00001C0
F00001C0
F00001C0
F00001C0
F00001C0
F00001C0
F00003C0
F00003C0
F00003C0
70000380
78000780
3C000F80
3E001F00
1F003E00
0FE1FC00
07FFF800
01FFF000
007F8000
ENDCHAR
STARTCHAR 0056
ENCODING 86
SWIDTH 610 0
DWIDTH 28 0
BBX 27 33 0 0
BITMAP
F00000E0
700001E0
780001E0
780001C0
380003C0
3C0003C0
3C000380
1C000780
1E000780
1E000700
0E000F00
0F000E00
07000E00
07001E00
07801C00
03801C00
03803C00
03C03800
01C07800
01C07800
01E07000
00E0F000
00F0F000
00F0E000
0071E000
0079E000
0079C000
003BC000
003FC000
003F8000
001F8000
001F8000
001F0000
ENDCHAR
STARTCHAR 0057
ENCODING 87
SWIDTH 938 0
DWIDTH 43 0
BBX 41 33 1 0
BITMAP
E0001C000780
F0003E000780
F0003E000700
70003E000700
78007E000F00
78007F000F00
380077000E00
380077001E00
3C00F7801E00
3C00E7801C00
1C00E3801C00
1E01E3803C00
1E01E3C03C00
0E01C1C03800
0E01C1C07800
0F03C1E07800
0F0381E07000
070380E07000
078780E0F000
078780F0F000
03870070E000
03870070E000
03CF0079E000
01CE0079C000
01CE0039C000
01DE003BC000
01FE003F8000
00FC001F8000
00FC001F8000
00FC001F8000
0078001F0000
0078000F0000
0078000F0000
ENDCHAR
STARTCHAR 0058
ENCODING 88
SWIDTH 610 0
DWIDTH 28 0
BBX 26 33 1 0
BITMAP
F00003C0
78000780
7C000F00
3C000F00
1E001E00
1F003C00
0F003C00
07807800
03C0F000
03C0F000
01E1E000
00F3C000
00F38000
007F8000
003F0000
003E0000
001E0000
003F0000
007F0000
007F8000
00F3C000
01E3C000
01E1E000
03C0F000
0780F800
07807800
0F003C00
1E001E00
1E001E00
3C000F00
78000780
F8000780
F00003C0
ENDCHAR
STARTCHAR 0059
ENCODING 89
SWIDTH 545 0
DWIDTH 25 0
BBX 25 33 0 0
BITMAP
F0000780
78000780
78000F00
3C000E00
1E001E00
1E003C00
0F003C00
0F007800
07807800
0780F000
03C0E000
01E1E000
01E3C000
00F3C000
00F78000
007F8000
007F0000
003E0000
001E0000
001C0000
001C0000
001C0000
001C0000
001C0000
001C0000
001C0000
001C0000
001C0000
001C0000
001C0000
001C0000
001C0000
001C0000
ENDCHAR
STARTCHAR 005A
ENCODING 90
SWIDTH 610 0
DWIDTH 28 0
BBX 24 33 2 0
BITMAP
7FFFFF
7FFFFE
7FFFFE
00003C
00003C
000078
0000F0
0000F0
0001E0
0003C0
0003C0
000780
000780
000F00
001E00
001E00
003C00
007C00
007800
00F000
00F000
01E000
03C000
03C000
078000
0F8000
0F0000
1E0000
1E0000
3C0000
7FFFFF
7FFFFF
FFFFFF
ENDCHAR
STARTCHAR 005B
ENCODING 91
SWIDTH 414 0
DWIDTH 19 0
BBX 9 51 6 -10
BITMAP
FF80
FF80
FF80
F000
F000
F000
F000
F000
F000
F000
F000
F000
F000
F000
F000
F000
F000
F000
F000
F000
F000
F000
F000
F000
F000
F000
F000
F000
F000
F000
F000
F000
F000
F000
F000
F000
F000
F000
F000
F000
F000
F000
F000
F000
F000
F000
F000
F000
FF80
FF80
FF80
ENDCHAR
STARTCHAR 005C
ENCODING 92
SWIDTH 392 0
DWIDTH 18 0
BBX 12 33 3 0
BITMAP
E000
F000
F000
7000
7000
7800
7800
3800
3800
3C00
1C00
1C00
1E00
1E00
0E00
0E00
0F00
0F00
0700
0700
0780
0780
0380
0380
03C0
01C0
01C0
01E0
01E0
00E0
00E0
00F0
00F0
ENDCHAR
STARTCHAR 005D
ENCODING 93
SWIDTH 414 0
DWIDTH 19 0
BBX 8 51 4 -10
BITMAP
FF
FF
FF
07
07
07
07
07
07
07
07
07
07
07
07
07
07
07
07
07
07
07
07
07
07
07
07
07
07
07
07
07
07
07
07
07
07
07
07
07
07
07
07
07
07
07
07
07
FF
FF
FF
ENDCHAR
STARTCHAR 005E
ENCODING 94
SWIDTH 676 0
DWIDTH 31 0
BBX 21 13 5 21
BITMAP
002000
007000
00F800
01FC00
03DE00
078F00
0F0780
1E03C0
3C01E0
7800F0
F00078
E00038
400010
ENDCHAR
STARTCHAR 005F
ENCODING 95
SWIDTH 654 0
DWIDTH 30 0
BBX 30 3 0 -5
BITMAP
FFFFFFFC
FFFFFFFC
FFFFFFFC
ENDCHAR
STARTCHAR 0060
ENCODING 96
SWIDTH 480 0
DWIDTH 22 0
BBX 5 7 8 37
BITMAP
E0
E0
70
70
30
38
38
ENDCHAR
STARTCHAR 0061
ENCODING 97
SWIDTH 545 0
DWIDTH 25 0
BBX 21 25 2 0
BITMAP
01FE00
07FF80
1FFFC0
3F03E0
3C00F0
780070
700070
000078
000078
0003F8
01FFF8
0FFFF8
3FF878
7E0078
780078
F00078
E00078
E000F8
E000F8
F001F8
F003F8
7C0FB8
3FFF38
1FFC38
07F000
ENDCHAR
STARTCHAR 0062
ENCODING 98
SWIDTH 589 0
DWIDTH 27 0
BBX 22 33 3 0
BITMAP
F00000
F00000
F00000
F00000
F00000
F00000
F00000
F00000
F0FE00
F3FF80
F7FFC0
FF87E0
FC01F0
F800F8
F80078
F0003C
F0003C
E0003C
E0001C
E0001C
E0001C
E0001C
E0001C
E0003C
F0003C
F0003C
F80078
F800F8
FC01F0
FF07E0
EFFFC0
E3FF80
E0FE00
ENDCHAR
STARTCHAR 0063
ENCODING 99
SWIDTH 545 0
DWIDTH 25 0
BBX 22 25 2 0
BITMAP
00FE00
07FF80
0FFFE0
1F83F0
3E00F8
7C0078
78003C
700020
F00000
F00000
F00000
E00000
E00000
E00000
F00000
F00000
F00000
700000
78003C
7C0078
3E00F8
1F83F0
0FFFE0
07FFC0
00FE00
ENDCHAR
STARTCHAR 0064
ENCODING 100
SWIDTH 589 0
DWIDTH 27 0
BBX 22 33 2 0
BITMAP
00001C
00001C
00001C
00001C
00001C
00001C
00001C
00001C
01FC1C
07FF1C
0FFFDC
1F83DC
3E00FC
7C007C
78007C
70003C
F0003C
F0001C
F0001C
E0001C
E0001C
E0001C
F0001C
F0001C
F0003C
70003C
78007C
7C007C
3E00FC
1F83DC
0FFFDC
07FF1C
01FC1C
ENDCHAR
STARTCHAR 0065
ENCODING 101
SWIDTH 589 0
DWIDTH 27 0
BBX 23 25 2 0
BITMAP
00FE00
07FFC0
0FFFE0
1F83F0
3E00F8
3C0078
78003C
70001C
F0001C
F0001E
F0001E
FFFFFE
FFFFFE
FFFFFE
E00000
F00000
F00000
700000
78001C
7C003C
3E00F8
1F83F0
0FFFE0
07FFC0
00FE00
ENDCHAR
STARTCHAR 0066
ENCODING 102
SWIDTH 349 0
DWIDTH 16 0
BBX 15 33 1 0
BITMAP
00FE
03FE
03FE
0780
0700
0700
0700
0700
FFFE
FFFE
FFFE
0700
0700
0700
0700
0700
0700
0700
0700
0700
0700
0700
0700
0700
0700
0700
0700
0700
0700
0700
0700
0700
0700
ENDCHAR
STARTCHAR 0067
ENCODING 103
SWIDTH 589 0
DWIDTH 27 0
BBX 22 36 2 -11
BITMAP
01FC1C
07FF1C
0FFFDC
1F83FC
3E00FC
7C007C
78007C
70003C
F0003C
F0001C
F0001C
E0001C
E0001C
E0001C
F0001C
F0001C
F0003C
70003C
78007C
7C007C
3E00FC
1F83DC
0FFFDC
07FF1C
01FC1C
00003C
00003C
00003C
00003C
180078
780078
3E00F0
1F87F0
0FFFE0
07FFC0
00FE00
ENDCHAR
STARTCHAR 0068
ENCODING 104
SWIDTH 589 0
DWIDTH 27 0
BBX 21 33 3 0
BITMAP
E00000
E00000
E00000
E00000
E00000
E00000
E00000
E00000
E0FE00
E3FF80
E7FFC0
EF87E0
FE01F0
FC00F0
F80078
F00078
F00038
F00038
F00038
F00038
F00038
F00038
F00038
F00038
F00038
F00038
F00038
F00038
F00038
F00038
F00038
F00038
F00038
ENDCHAR
STARTCHAR 0069
ENCODING 105
SWIDTH 240 0
DWIDTH 11 0
BBX 3 33 4 0
BITMAP
E0
E0
E0
E0
00
00
00
00
E0
E0
E0
E0
E0
E0
E0
E0
E0
E0
E0
E0
E0
E0
E0
E0
E0
E0
E0
E0
E0
E0
E0
E0
E0
ENDCHAR
STARTCHAR 006A
ENCODING 106
SWIDTH 240 0
DWIDTH 11 0
BBX 8 44 0 -11
BITMAP
07
07
07
07
00
00
00
00
07
07
07
07
07
07
07
07
07
07
07
07
07
07
07
07
07
07
07
07
07
07
07
07
07
07
07
07
07
07
0F
0F
1F
FE
FC
F8
ENDCHAR
STARTCHAR 006B
ENCODING 107
SWIDTH 501 0
DWIDTH 23 0
BBX 20 33 3 0
BITMAP
F00000
F00000
F00000
F00000
F00000
F00000
F00000
F00000
F003E0
F007C0
F00F80
F01F00
F01E00
F03C00
F07800
F0F000
F1E000
F3C000
F78000
FF0000
FF0000
FF8000
F7C000
F3E000
F1F000
F0F800
F07C00
F03E00
F01F00
F00F80
F007C0
F003E0
F001F0
ENDCHAR
STARTCHAR 006C
ENCODING 108
SWIDTH 240 0
DWIDTH 11 0
BBX 3 33 4 0
BITMAP
E0
E0
E0
E0
E0
E0
E0
E0
E0
E0
E0
E0
E0
E0
E0
E0
E0
E0
E0
E0
E0
E0
E0
E0
E0
E0
E0
E0
E0
E0
E0
E0
E0
ENDCHAR
STARTCHAR 006D
ENCODING 109
SWIDTH 850 0
DWIDTH 39 0
BBX 33 25 3 0
BITMAP
E1F803F000
E7FE0FFC00
EFFF1FFE00
FE0FBC3F00
F807F00F00
F803E00780
F003E00780
F001C00380
F001C00380
F001C00380
F001C00380
F001C00380
F001C00380
F001C00380
F001C00380
F001C00380
F001C00380
F001C00380
F001C00380
F001C00380
F001C00380
F001C00380
F001C00380
F001C00380
F001C00380
ENDCHAR
STARTCHAR 006E
ENCODING 110
SWIDTH 589 0
DWIDTH 27 0
BBX 21 25 3 0
BITMAP
E0FE00
E3FF80
E7FFC0
EF87E0
FE01F0
F800F0
F80078
F00078
F00038
F00038
F00038
F00038
F00038
F00038
F00038
F00038
F00038
F00038
F00038
F00038
F00038
F00038
F00038
F00038
F00038
ENDCHAR
STARTCHAR 006F
ENCODING 111
SWIDTH 589 0
DWIDTH 27 0
BBX 23 25 2 0
BITMAP
00FE00
07FFC0
0FFFE0
1F83F0
3E00F8
7C007C
78003C
70001C
F0001E
F0001E
F0000E
E0000E
E0000E
E0000E
F0000E
F0001E
F0001E
70001C
78003C
7C007C
3E00F8
1F83F0
0FFFE0
07FFC0
00FE00
ENDCHAR
STARTCHAR 0070
ENCODING 112
SWIDTH 589 0
DWIDTH 27 0
BBX 22 35 3 -10
BITMAP
E0FE00
E3FF80
E7FFC0
EF87E0
FC01F0
F800F8
F80078
F0003C
F0003C
E0003C
E0001C
E0001C
E0001C
E0001C
E0001C
E0003C
F0003C
F0003C
F80078
F800F8
FC01F0
FF07E0
F7FFC0
F3FF80
F0FE00
F00000
F00000
F00000
F00000
F00000
F00000
F00000
F00000
F00000
F00000
ENDCHAR
STARTCHAR 0071
ENCODING 113
SWIDTH 589 0
DWIDTH 27 0
BBX 22 35 2 -10
BITMAP
01FC1C
07FF1C
0FFFDC
1F83FC
3E00FC
7C007C
78007C
70003C
F0003C
F0001C
F0001C
E0001C
E0001C
E0001C
F0001C
F0001C
F0003C
70003C
78007C
7C007C
3E00FC
1F83DC
0FFFDC
07FF1C
01FC1C
00001C
00001C
00001C
00001C
00001C
00001C
00001C
00001C
00001C
00001C
ENDCHAR
STARTCHAR 0072
ENCODING 114
SWIDTH 370 0
DWIDTH 17 0
BBX 12 25 3 0
BITMAP
E0F0
E3F0
EFF0
EF00
FC00
F800
F800
F000
F000
F000
F000
F000
F000
F000
F000
F000
F000
F000
F000
F000
F000
F000
F000
F000
F000
ENDCHAR
STARTCHAR 0073
ENCODING 115
SWIDTH 523 0
DWIDTH 24 0
BBX 20 25 2 0
BITMAP
03FC00
0FFF00
3FFFC0
3E07E0
7801E0
7000F0
7000F0
700000
780000
7E0000
3FC000
0FFC00
03FF00
003FC0
0007E0
0000F0
0000F0
000070
F00070
F000F0
7801F0
7E03E0
3FFFC0
0FFF80
03FE00
ENDCHAR
STARTCHAR 0074
ENCODING 116
SWIDTH 392 0
DWIDTH 18 0
BBX 17 32 0 -1
BITMAP
038000
038000
038000
038000
038000
038000
038000
FFFF80
FFFF80
FFFF80
038000
038000
038000
038000
038000
038000
038000
038000
038000
038000
038000
038000
038000
038000
038000
038000
038000
03C000
03E000
01FF80
00FF80
003F80
ENDCHAR
STARTCHAR 0075
ENCODING 117
SWIDTH 589 0
DWIDTH 27 0
BBX 21 25 3 0
BITMAP
E00038
E00038
E00038
E00038
E00038
E00038
E00038
E00038
E00038
E00038
E00038
E00038
E00038
E00038
E00038
E00078
F00078
F00078
7000F8
7800F8
7C01F8
3F0FF8
1FFFB8
0FFE38
03F838
ENDCHAR
STARTCHAR 0076
ENCODING 118
SWIDTH 501 0
DWIDTH 23 0
BBX 21 25 1 0
BITMAP
F00038
F00078
700070
780070
3800F0
3800E0
3C00E0
1C01E0
1C01C0
1E01C0
0E03C0
0E0380
0F0780
070780
078700
078F00
038E00
03CE00
01DE00
01DC00
01FC00
00FC00
00F800
00F800
007800
ENDCHAR
STARTCHAR 0077
ENCODING 119
SWIDTH 763 0
DWIDTH 35 0
BBX 33 25 1 0
BITMAP
E001C00380
F001E00780
7003E00700
7003E00700
7803E00700
3807700F00
3807700E00
3C07700E00
3C0F381E00
1C0E381C00
1C0E381C00
1E0E1C3C00
0E1C1C3800
0E1C1C3800
0F1C1E7800
07380E7800
07380E7000
07B80E7000
07F007F000
03F007E000
03F007E000
03E003E000
01E003C000
01E003C000
01E001C000
ENDCHAR
STARTCHAR 0078
ENCODING 120
SWIDTH 523 0
DWIDTH 24 0
BBX 22 25 1 0
BITMAP
F0003C
780078
3C0078
3C00F0
1E01E0
0F03C0
0783C0
078780
03CF00
01FE00
00FC00
00FC00
007800
00FC00
01FE00
01FE00
03CF00
078780
0F03C0
0F03C0
1E01E0
3C00F0
780078
78007C
F0003C
ENDCHAR
STARTCHAR 0079
ENCODING 121
SWIDTH 523 0
DWIDTH 24 0
BBX 22 36 1 -11
BITMAP
F0001C
F0003C
700038
780038
380078
3C0070
3C0070
1C00F0
1E00E0
0E01E0
0F01C0
0F01C0
0703C0
078380
038380
03C780
03C700
01C700
01EF00
00EE00
00FE00
00FC00
007C00
007C00
003800
003800
007800
007000
00F000
00E000
00E000
01E000
01C000
01C000
03C000
038000
ENDCHAR
STARTCHAR 007A
ENCODING 122
SWIDTH 523 0
DWIDTH 24 0
BBX 21 25 1 0
BITMAP
7FFFF8
7FFFF8
7FFFF0
0000E0
0001E0
0003C0
000780
000700
000F00
001E00
003C00
003800
007800
00F000
01E000
01C000
03C000
078000
0F0000
0E0000
1E0000
3C0000
7FFFF8
FFFFF8
FFFFF8
ENDCHAR
STARTCHAR 007B
ENCODING 123
SWIDTH 414 0
DWIDTH 19 0
BBX 11 51 6 -10
BITMAP
03E0
07E0
0FE0
1F00
1E00
1C00
1C00
1C00
1C00
1C00
1C00
1C00
1C00
1C00
1C00
1C00
1C00
1C00
1C00
1C00
1C00
1C00
3C00
7800
7800
F000
7800
7800
3C00
1C00
1C00
1C00
1C00
1C00
1C00
1C00
1C00
1C00
1C00
1C00
1C00
1C00
1C00
1C00
1C00
1C00
1E00
1F00
0FE0
07E0
03E0
ENDCHAR
STARTCHAR 007C
ENCODING 124
SWIDTH 261 0
DWIDTH 12 0
BBX 3 33 4 0
BITMAP
E0
E0
E0
E0
E0
E0
E0
E0
E0
E0
E0
E0
E0
E0
E0
E0
E0
E0
E0
E0
E0
E0
E0
E0
E0
E0
E0
E0
E0
E0
E0
E0
E0
ENDCHAR
STARTCHAR 007D
ENCODING 125
SWIDTH 414 0
DWIDTH 19 0
BBX 11 51 2 -10
BITMAP
F800
FE00
FE00
0F00
0700
0700
0700
0700
0700
0700
0700
0700
0700
0700
0700
0700
0700
0700
0700
0700
0700
0700
0780
03C0
01C0
01E0
01C0
03C0
0780
0700
0700
0700
0700
0700
0700
0700
0700
0700
0700
0700
0700
0700
0700
0700
0700
0700
0700
0F00
FE00
FE00
F800
ENDCHAR
STARTCHAR 007E
ENCODING 126
SWIDTH 654 0
DWIDTH 30 0
BBX 20 7 5 11
BITMAP
1F00F0
3FC070
7FF0F0
FFFFF0
F0FFE0
F03FE0
F00780
ENDCHAR
STARTCHAR 00A0
ENCODING 160
SWIDTH 196 0
DWIDTH 9 0
BBX 0 0 0 0
BITMAP
ENDCHAR
STARTCHAR 00A1
ENCODING 161
SWIDTH 305 0
DWIDTH 14 0
BBX 4 33 5 -8
BITMAP
F0
F0
F0
F0
00
00
00
00
F0
F0
F0
F0
F0
F0
F0
F0
F0
F0
F0
F0
F0
F0
F0
F0
F0
F0
F0
F0
F0
F0
F0
F0
F0
ENDCHAR
STARTCHAR 00A2
ENCODING 162
SWIDTH 545 0
DWIDTH 25 0
BBX 22 34 2 -1
BITMAP
003800
003800
003800
003800
00FC00
03FF80
0FFFE0
1FCFF0
3E00F8
3C0078
78003C
780030
F00000
F00000
F00000
E00000
E00000
E00000
E00000
F00000
F00000
F00000
700020
78003C
7C0078
3E00F8
1F03F0
0FFFE0
07FFC0
01FF00
003800
003800
003800
003800
ENDCHAR
STARTCHAR 00A3
ENCODING 163
SWIDTH 567 0
DWIDTH 26 0
BBX 22 33 2 0
BITMAP
001F80
007FC0
01FFF0
01F1F0
03C078
03803C
07801C
07801C
078018
078000
078000
078000
078000
078000
078000
FFFF80
FFFF80
FFFF80
078000
078000
078000
078000
078000
078000
078000
078000
078000
078000
0F8000
1F8000
FFFFF8
FFFFF8
FFFFF8
ENDCHAR
STARTCHAR 00A4
ENCODING 164
SWIDTH 632 0
DWIDTH 29 0
BBX 26 26 2 4
BITMAP
40000100
E07F0380
F1FFC7C0
7FFFFF80
3FC1FF00
1F007E00
1E001E00
3C000E00
38000F00
70000700
70000700
70000380
70000380
70000380
70000380
70000700
70000700
38000F00
3C000E00
1C001E00
1F003E00
3FC0FF00
7FFFFF80
F1FFE780
E07F03C0
40000180
ENDCHAR
STARTCHAR 00A5
ENCODING 165
SWIDTH 545 0
DWIDTH 25 0
BBX 25 33 0 0
BITMAP
F0000780
78000780
78000F00
3C000E00
1E001E00
1E003C00
0F003C00
0F007800
07807800
0380F000
03C1E000
01E1E000
01E3C000
00F3C000
00F78000
007F8000
003F0000
003E0000
0FFFF800
0FFFF800
0FFFF800
001C0000
001C0000
001C0000
001C0000
0FFFF800
0FFFF800
0FFFF800
001C0000
001C0000
001C0000
001C0000
001C0000
ENDCHAR
STARTCHAR 00A6
ENCODING 166
SWIDTH 261 0
DWIDTH 12 0
BBX 3 40 4 -7
BITMAP
E0
E0
E0
E0
E0
E0
E0
E0
E0
E0
E0
E0
E0
E0
E0
E0
E0
00
00
00
00
00
00
E0
E0
E0
E0
E0
E0
E0
E0
E0
E0
E0
E0
E0
E0
E0
E0
E0
ENDCHAR
STARTCHAR 00A7
ENCODING 167
SWIDTH 523 0
DWIDTH 24 0
BBX 20 37 2 -7
BITMAP
03F800
0FFE00
1FFF80
3E0FC0
7803C0
7801E0
7001E0
700080
780000
7C0000
3F8000
1FF800
07FF00
1FFFC0
3C0FE0
7801F0
F000F0
F00070
F00070
F00070
7800F0
7F00F0
3FF3E0
0FFFC0
01FF80
001FC0
0003E0
0001E0
0000F0
0000F0
7000F0
7800E0
7C01E0
3F07E0
1FFFC0
0FFF80
01FC00
ENDCHAR
STARTCHAR 00A8
ENCODING 168
SWIDTH 501 0
DWIDTH 23 0
BBX 13 4 5 38
BITMAP
F078
F078
F078
F078
ENDCHAR
STARTCHAR 00A9
ENCODING 169
SWIDTH 807 0
DWIDTH 37 0
BBX 34 34 1 -1
BITMAP
0007F80000
003FFF0000
00FFFFC000
01FE0FF000
03F001F800
07C0007C00
0F80003E00
1E00F01F00
1E07FC0F00
3C0FFF0780
381E0F0780
783C0783C0
70380383C0
70700001C0
70700001C0
F0700001C0
F0700001C0
F0700001C0
F0700001C0
70700001C0
70780001C0
70380383C0
783C0783C0
381E0F0780
3C0FFF0780
1C07FC0F00
1E01E01F00
0F00003E00
07C0007C00
03E001F800
01FC07F000
00FFFFE000
003FFF8000
000FFE0000
ENDCHAR
STARTCHAR 00AA
ENCODING 170
SWIDTH 305 0
DWIDTH 14 0
BBX 11 13 2 12
BITMAP
3F80
7FC0
71C0
60E0
00E0
1FE0
7FE0
F0E0
C0E0
C1E0
E3E0
7FE0
3C00
ENDCHAR
STARTCHAR 00AB
ENCODING 171
SWIDTH 545 0
DWIDTH 25 0
BBX 17 20 4 2
BITMAP
010100
03C380
038780
070700
0E0E00
1E1C00
3C3C00
387800
707000
E0E000
E0E000
707000
383800
3C3C00
1E1C00
0E0E00
070700
038380
038380
010100
ENDCHAR
STARTCHAR 00AC
ENCODING 172
SWIDTH 610 0
DWIDTH 28 0
BBX 22 9 3 9
BITMAP
FFFFFC
FFFFFC
FFFFFC
00001C
00001C
00001C
00001C
00001C
00001C
ENDCHAR
STARTCHAR 00AD
ENCODING 173
SWIDTH 414 0
DWIDTH 19 0
BBX 14 3 3 13
BITMAP
FFFC
FFFC
FFFC
ENDCHAR
STARTCHAR 00AE
ENCODING 174
SWIDTH 632 0
DWIDTH 29 0
BBX 22 23 3 13
BITMAP
003000
01FF00
07FFC0
0F83E0
1E00F0
380078
78F838
70FE1C
60871C
E0830C
E0830C
E0FE0C
E0FC0C
E08C0C
60861C
70861C
708338
380038
3C00F0
1F01E0
0FFFC0
03FF80
00FE00
ENDCHAR
STARTCHAR 00AF
ENCODING 175
SWIDTH 480 0
DWIDTH 22 0
BBX 12 3 5 38
BITMAP
FFF0
FFF0
FFF0
ENDCHAR
STARTCHAR 00B0
ENCODING 176
SWIDTH 458 0
DWIDTH 21 0
BBX 17 16 1 17
BITMAP
03E000
0FF800
1FFE00
3E1E00
780F00
700700
700380
E00380
E00380
F00380
700700
780F00
3C1E00
1FFE00
0FFC00
03F000
ENDCHAR
STARTCHAR 00B1
ENCODING 177
SWIDTH 610 0
DWIDTH 28 0
BBX 22 21 3 4
BITMAP
007000
007000
007000
007000
007000
007000
FFFFFC
FFFFFC
FFFFFC
007000
007000
007000
007000
007000
007000
000000
000000
000000
FFFFFC
FFFFFC
FFFFFC
ENDCHAR
STARTCHAR 00B2
ENCODING 178
SWIDTH 392 0
DWIDTH 18 0
BBX 14 21 2 12
BITMAP
0FC0
1FF0
3EF8
7038
701C
E01C
E01C
001C
001C
0038
0078
00F0
01E0
03C0
0780
0F00
1E00
3800
7000
FFFC
FFFC
ENDCHAR
STARTCHAR 00B3
ENCODING 179
SWIDTH 392 0
DWIDTH 18 0
BBX 13 21 2 12
BITMAP
7FF8
7FF8
0038
0070
01E0
03C0
0780
0F00
1F80
1FE0
08F0
0070
0038
0038
0038
0038
E038
E070
7DF0
3FE0
0F80
ENDCHAR
STARTCHAR 00B4
ENCODING 180
SWIDTH 480 0
DWIDTH 22 0
BBX 5 7 9 37
BITMAP
38
38
38
70
70
60
E0
ENDCHAR
STARTCHAR 00B5
ENCODING 181
SWIDTH 610 0
DWIDTH 28 0
BBX 21 35 3 -10
BITMAP
F00038
F00038
F00038
F00038
F00038
F00038
F00038
F00038
F00038
F00038
F00038
F00038
F00038
F00038
F00038
F00038
F00038
F00078
F80078
F800F8
FC01F8
FF87F8
EFFFB8
E7FF38
E1FC38
E00000
E00000
E00000
E00000
E00000
E00000
E00000
E00000
E00000
E00000
ENDCHAR
STARTCHAR 00B6
ENCODING 182
SWIDTH 632 0
DWIDTH 29 0
BBX 23 39 3 -6
BITMAP
01FF1E
07FF1E
1FFF1E
1FFF1E
3FFF1E
7FFF1E
7FFF1E
7FFF1E
FFFF1E
FFFF1E
FFFF1E
FFFF1E
7FFF1E
7FFF1E
7FFF1E
3FFF1E
3FFF1E
1FFF1E
0FFF1E
03FF1E
00071E
00071E
00071E
00071E
00071E
00071E
00071E
00071E
00071E
00071E
00071E
00071E
00071E
00071E
00071E
00071E
00071E
00071E
00071E
ENDCHAR
STARTCHAR 00B7
ENCODING 183
SWIDTH 218 0
DWIDTH 10 0
BBX 5 5 3 12
BITMAP
70
F0
F8
F0
70
ENDCHAR
STARTCHAR 00B8
ENCODING 184
SWIDTH 392 0
DWIDTH 18 0
BBX 7 11 6 -11
BITMAP
38
30
30
78
3C
0E
0E
0E
FC
FC
F0
ENDCHAR
STARTCHAR 00B9
ENCODING 185
SWIDTH 327 0
DWIDTH 15 0
BBX 6 21 3 12
BITMAP
1C
7C
FC
EC
8C
0C
0C
0C
0C
0C
0C
0C
0C
0C
0C
0C
0C
0C
0C
0C
0C
ENDCHAR
STARTCHAR 00BA
ENCODING 186
SWIDTH 349 0
DWIDTH 16 0
BBX 12 13 2 12
BITMAP
1F00
3FC0
79E0
E060
E070
C070
C070
C070
E070
E060
79E0
3FC0
1F80
ENDCHAR
STARTCHAR 00BB
ENCODING 187
SWIDTH 545 0
DWIDTH 25 0
BBX 18 20 3 2
BITMAP
404000
E0E000
707000
387800
3C3C00
1C1C00
0E0E00
070700
038780
03C3C0
03C380
078780
070700
0E0E00
1C1C00
3C3800
787800
707000
E0E000
004000
ENDCHAR
STARTCHAR 00BC
ENCODING 188
SWIDTH 981 0
DWIDTH 45 0
BBX 36 33 3 0
BITMAP
1C00001000
7C00003800
FC00003800
CC00007000
8C0000F000
0C0001E000
0C0003C000
0C00038000
0C00078000
0C000F0000
0C001E0000
0C001C0000
0C003C0700
0C00780E00
0C00F00E00
0C01E01C00
0C01C01C00
0C03C03800
0C07803800
0C0F007000
000E007000
001E00E1C0
003C00E1C0
007801C1C0
007001C1C0
00F00381C0
01E00381C0
03C003FFF0
078003FFF0
07000001C0
0F000001C0
0E000001C0
04000001C0
ENDCHAR
STARTCHAR 00BD
ENCODING 189
SWIDTH 938 0
DWIDTH 43 0
BBX 38 33 3 0
BITMAP
1C00001000
7C00003800
FC00003800
EC00007000
8C0000F000
0C0001E000
0C0003C000
0C00038000
0C00078000
0C000F0000
0C001E0000
0C001C0000
0C003C0F80
0C00783FE0
0C00F07DF0
0C00E07038
0C01C0E038
0C03C0E018
0C0780C01C
0C0F000018
0C0E000038
001E000038
003C000070
00780000E0
00700001C0
00F0000380
01E0000F00
03C0001E00
0780003C00
0700007800
0F0000F000
0E0000FFFC
040000FFFC
ENDCHAR
STARTCHAR 00BE
ENCODING 190
SWIDTH 981 0
DWIDTH 45 0
BBX 40 33 2 0
BITMAP
7FF8000100
7FF80003C0
0038000380
0070000780
01E0000F00
03C0001E00
0780001C00
0F00003C00
1F80007800
1FE000F000
08F000E000
007001C000
003803C070
00380780E0
00380F00E0
00380E01C0
E0381E01C0
E0703C0380
7DF0780380
3FE0700700
0F80F00700
0001E0061C
0003C00E1C
0003800C1C
0007001C1C
000F001C1C
001E00381C
003C003FFF
0038003FFF
007800001C
00F000001C
00E000001C
004000001C
ENDCHAR
STARTCHAR 00BF
ENCODING 191
SWIDTH 523 0
DWIDTH 24 0
BBX 20 34 2 -9
BITMAP
007000
007000
007000
007000
007000
000000
000000
000000
000000
007000
007000
007000
007000
00F000
01E000
03E000
07C000
0F8000
1F0000
3E0000
7C0000
780000
700000
F00000
F00000
F000F0
F000F0
7000E0
7801E0
7C03E0
3F0FC0
1FFF80
0FFF00
03F800
ENDCHAR
STARTCHAR 00C0
ENCODING 192
SWIDTH 632 0
DWIDTH 29 0
BBX 27 44 1 0
BITMAP
00700000
00300000
00380000
00380000
001C0000
001C0000
000C0000
00000000
00000000
00000000
00000000
001F0000
001F0000
003F8000
003F8000
003B8000
007BC000
007BC000
0071C000
00F1E000
00F1E000
00E0E000
01E0F000
01E07000
01C07000
03C07800
03803800
03803800
07803C00
07001C00
07001C00
0F001E00
0E000E00
0FFFFF00
1FFFFF00
1FFFFF00
3C000780
3C000780
38000380
780003C0
780003C0
700001C0
F00001E0
F00001E0
ENDCHAR
STARTCHAR 00C1
ENCODING 193
SWIDTH 632 0
DWIDTH 29 0
BBX 27 44 1 0
BITMAP
0001C000
00018000
00038000
00038000
00070000
00070000
00070000
00000000
00000000
00000000
00000000
001F0000
001F0000
003F8000
003F8000
003B8000
007BC000
007BC000
0071C000
00F1E000
00F1E000
00E0E000
01E0F000
01C0F000
01C07000
03C07800
03803800
03803800
07803C00
07001C00
07001C00
0F001E00
0E000E00
0FFFFF00
1FFFFF00
1FFFFF00
3C000780
3C000780
38000380
780003C0
780003C0
700001C0
F00001E0
F00001E0
ENDCHAR
STARTCHAR 00C2
ENCODING 194
SWIDTH 632 0
DWIDTH 29 0
BBX 27 43 1 0
BITMAP
000F0000
001F0000
003B8000
0071C000
00F1E000
01E0F000
00000000
00000000
00000000
00000000
001F0000
001F0000
003F8000
003F8000
003B8000
007BC000
007BC000
0071C000
00F1E000
00F1E000
00E0E000
01E0F000
01C0F000
01C07000
03C07800
03803800
03803800
07803C00
07001C00
07001C00
0F001E00
0E000E00
0FFFFF00
1FFFFF00
1FFFFF00
3C000780
3C000780
38000380
780003C0
780003C0
700001C0
F00001E0
F00001E0
ENDCHAR
STARTCHAR 00C3
ENCODING 195
SWIDTH 632 0
DWIDTH 29 0
BBX 27 44 1 0
BITMAP
00600000
01F83000
01FE3800
019FF000
0187F000
0001E000
00000000
00000000
00000000
00000000
00000000
001F0000
001F0000
003F8000
003F8000
003B8000
007BC000
007BC000
0071C000
00F1E000
00F1E000
00E0E000
01E0F000
01C0F000
01C07000
03C07800
03803800
03803800
07803C00
07001C00
07001C00
0F001E00
0E000E00
0FFFFF00
1FFFFF00
1FFFFF00
3C000780
3C000780
38000380
780003C0
780003C0
700001C0
F00001E0
F00001E0
ENDCHAR
STARTCHAR 00C4
ENCODING 196
SWIDTH 632 0
DWIDTH 29 0
BBX 27 42 1 0
BITMAP
01E0F000
01E0F000
01E0F000
01E0F000
00000000
00000000
00000000
00000000
00000000
001F0000
001F0000
003F8000
003F8000
003B8000
007BC000
007BC000
0071C000
00F1E000
00F1E000
00E0E000
01E0F000
01C0F000
01C07000
03C07800
03803800
03803800
07803C00
07001C00
07001C00
0F001E00
0E000E00
0FFFFF00
1FFFFF00
1FFFFF00
3C000780
3C000780
38000380
780003C0
780003C0
700001C0
F00001E0
F00001E0
ENDCHAR
STARTCHAR 00C5
ENCODING 197
SWIDTH 632 0
DWIDTH 29 0
BBX 27 45 1 0
BITMAP
001F8000
003FC000
0071C000
0060C000
0060E000
0060C000
0071C000
003FC000
003F8000
00040000
00000000
00000000
001F0000
001F0000
003F8000
003F8000
003B8000
007BC000
007BC000
0071C000
00F1E000
00F1E000
00E0E000
01E0F000
01C0F000
01C07000
03C07800
03803800
03803800
07803C00
07001C00
07001C00
0F001E00
0E000E00
0FFFFF00
1FFFFF00
1FFFFF00
3C000780
3C000780
38000380
780003C0
780003C0
700001C0
F00001E0
F00001E0
ENDCHAR
STARTCHAR 00C6
ENCODING 198
SWIDTH 916 0
DWIDTH 42 0
BBX 39 33 1 0
BITMAP
001FFFFFFE
001FFFFFFE
003FFFFFFE
003C3C0000
00383C0000
00783C0000
00783C0000
00703C0000
00F03C0000
00E03C0000
00E03C0000
01E03C0000
01C03C0000
01C03C0000
03C03C0000
03803FFFF0
03803FFFF0
07803FFFF0
07003C0000
07003C0000
0F003C0000
0E003C0000
0FFFFC0000
1FFFFC0000
1FFFFC0000
3C003C0000
3C003C0000
38003C0000
78003C0000
78003C0000
70003FFFFE
F0003FFFFE
F0003FFFFE
ENDCHAR
STARTCHAR 00C7
ENCODING 199
SWIDTH 720 0
DWIDTH 33 0
BBX 30 43 1 -10
BITMAP
001FF000
00FFFE00
01FFFF00
07F83FC0
0FC007E0
0F0001E0
1E0000F0
3C000078
3C000078
7800003C
7800003C
78000000
70000000
70000000
F0000000
F0000000
F0000000
F0000000
F0000000
70000000
70000000
70000000
7800003C
7800003C
3C000078
3C000078
1E0000F0
0F0001F0
0FC007E0
07F83FC0
01FFFF00
00FFFE00
001FF000
00018000
00038000
0003C000
0003E000
0000E000
00007000
00007000
0007E000
0007E000
00078000
ENDCHAR
STARTCHAR 00C8
ENCODING 200
SWIDTH 567 0
DWIDTH 26 0
BBX 21 44 3 0
BITMAP
01C000
00E000
00E000
00E000
007000
007000
003000
000000
000000
000000
000000
FFFFF8
FFFFF8
FFFFF8
F00000
F00000
F00000
F00000
F00000
F00000
F00000
F00000
F00000
F00000
F00000
F00000
FFFFC0
FFFFC0
FFFFC0
F00000
F00000
F00000
F00000
F00000
F00000
F00000
F00000
F00000
F00000
F00000
F00000
FFFFF8
FFFFF8
FFFFF8
ENDCHAR
STARTCHAR 00C9
ENCODING 201
SWIDTH 567 0
DWIDTH 26 0
BBX 21 44 3 0
BITMAP
000E00
000E00
001C00
001C00
001C00
003800
003800
000000
000000
000000
000000
FFFFF8
FFFFF8
FFFFF8
F00000
F00000
F00000
F00000
F00000
F00000
F00000
F00000
F00000
F00000
F00000
F00000
FFFFC0
FFFFC0
FFFFC0
F00000
F00000
F00000
F00000
F00000
F00000
F00000
F00000
F00000
F00000
F00000
F00000
FFFFF8
FFFFF8
FFFFF8
ENDCHAR
STARTCHAR 00CA
ENCODING 202
SWIDTH 567 0
DWIDTH 26 0
BBX 21 43 3 0
BITMAP
00F000
01F800
01FC00
039E00
070F00
0E0700
000080
000000
000000
000000
FFFFF8
FFFFF8
FFFFF8
F00000
F00000
F00000
F00000
F00000
F00000
F00000
F00000
F00000
F00000
F00000
F00000
FFFFC0
FFFFC0
FFFFC0
F00000
F00000
F00000
F00000
F00000
F00000
F00000
F00000
F00000
F00000
F00000
F00000
FFFFF8
FFFFF8
FFFFF8
ENDCHAR
STARTCHAR 00CB
ENCODING 203
SWIDTH 567 0
DWIDTH 26 0
BBX 21 42 3 0
BITMAP
0F0700
0F0700
0F0700
0F0700
000000
000000
000000
000000
000000
FFFFF8
FFFFF8
FFFFF8
F00000
F00000
F00000
F00000
F00000
F00000
F00000
F00000
F00000
F00000
F00000
F00000
FFFFC0
FFFFC0
FFFFC0
F00000
F00000
F00000
F00000
F00000
F00000
F00000
F00000
F00000
F00000
F00000
F00000
FFFFF8
FFFFF8
FFFFF8
ENDCHAR
STARTCHAR 00CC
ENCODING 204
SWIDTH 240 0
DWIDTH 11 0
BBX 6 44 1 0
BITMAP
E0
70
70
70
38
38
1C
00
00
00
00
1C
1C
1C
1C
1C
1C
1C
1C
1C
1C
1C
1C
1C
1C
1C
1C
1C
1C
1C
1C
1C
1C
1C
1C
1C
1C
1C
1C
1C
1C
1C
1C
1C
ENDCHAR
STARTCHAR 00CD
ENCODING 205
SWIDTH 240 0
DWIDTH 11 0
BBX 5 44 4 0
BITMAP
18
38
38
70
70
60
E0
00
00
00
00
E0
E0
E0
E0
E0
E0
E0
E0
E0
E0
E0
E0
E0
E0
E0
E0
E0
E0
E0
E0
E0
E0
E0
E0
E0
E0
E0
E0
E0
E0
E0
E0
E0
ENDCHAR
STARTCHAR 00CE
ENCODING 206
SWIDTH 240 0
DWIDTH 11 0
BBX 13 43 -1 0
BITMAP
0F00
1F80
1DC0
39E0
70F0
F078
0000
0000
0000
0000
0700
0700
0700
0700
0700
0700
0700
0700
0700
0700
0700
0700
0700
0700
0700
0700
0700
0700
0700
0700
0700
0700
0700
0700
0700
0700
0700
0700
0700
0700
0700
0700
0700
ENDCHAR
STARTCHAR 00CF
ENCODING 207
SWIDTH 240 0
DWIDTH 11 0
BBX 13 42 -1 0
BITMAP
F078
F078
F078
F078
0000
0000
0000
0000
0000
0700
0700
0700
0700
0700
0700
0700
0700
0700
0700
0700
0700
0700
0700
0700
0700
0700
0700
0700
0700
0700
0700
0700
0700
0700
0700
0700
0700
0700
0700
0700
0700
0700
ENDCHAR
STARTCHAR 00D0
ENCODING 208
SWIDTH 676 0
DWIDTH 31 0
BBX 28 33 0 0
BITMAP
1FFFE000
1FFFF800
1FFFFE00
1C007F00
1C000F80
1C0007C0
1C0003C0
1C0001E0
1C0001E0
1C0000E0
1C0000F0
1C0000F0
1C000070
1C000070
1C000070
FFFE0070
FFFE0070
FFFE0070
1C000070
1C000070
1C000070
1C0000F0
1C0000F0
1C0000E0
1C0001E0
1C0001E0
1C0003C0
1C0007C0
1C000F80
1C007F00
1FFFFE00
1FFFF800
1FFFE000
ENDCHAR
STARTCHAR 00D1
ENCODING 209
SWIDTH 676 0
DWIDTH 31 0
BBX 25 42 3 0
BITMAP
00F03000
01FC3000
03FFF000
0387F000
0381E000
00000000
00000000
00000000
00000000
F0000380
F8000380
F8000380
FC000380
FE000380
FE000380
FF000380
F7800380
F7800380
F3C00380
F1E00380
F1E00380
F0F00380
F0780380
F0780380
F03C0380
F01E0380
F01E0380
F00F0380
F0078380
F0078380
F003C380
F001E380
F001E380
F000F380
F0007B80
F0007B80
F0003F80
F0001F80
F0001F80
F0000F80
F0000780
F0000780
ENDCHAR
STARTCHAR 00D2
ENCODING 210
SWIDTH 720 0
DWIDTH 33 0
BBX 31 43 1 0
BITMAP
000C0000
000E0000
000E0000
00070000
00070000
00070000
00038000
00000000
00000000
00000000
001FF000
00FFFE00
01FFFF00
07F83FC0
0FC007E0
0F0001F0
1E0000F0
3C000078
3C000078
7800003C
7800003C
7800001C
7000001C
7000001E
F000001E
F000001E
F000001E
F000001E
F000001E
7000001E
7000001C
7800001C
7800003C
7800003C
3C000078
3C000078
1E0000F0
0F0001F0
0FC007E0
07F83FC0
01FFFF80
00FFFE00
001FF000
ENDCHAR
STARTCHAR 00D3
ENCODING 211
SWIDTH 720 0
DWIDTH 33 0
BBX 31 43 1 0
BITMAP
00007000
00006000
0000E000
0000E000
0001C000
0001C000
0001C000
00000000
00000000
00000000
001FF000
00FFFE00
01FFFF00
07F83FC0
0FC007E0
0F0001F0
1E0000F0
3C000078
3C000078
7800003C
7800003C
7800001C
7000001C
7000001E
F000001E
F000001E
F000001E
F000001E
F000001E
7000001E
7000001C
7800001C
7800003C
7800003C
3C000078
3C000078
1E0000F0
0F0001F0
0FC007E0
07F83FC0
01FFFF80
00FFFE00
001FF000
ENDCHAR
STARTCHAR 00D4
ENCODING 212
SWIDTH 720 0
DWIDTH 33 0
BBX 31 42 1 0
BITMAP
0007C000
0007E000
000EE000
001C7000
00383800
00783C00
00000000
00000000
00000000
001FF000
00FFFE00
01FFFF00
07F83FC0
0FC007E0
0F0001F0
1E0000F0
3C000078
3C000078
7800003C
7800003C
7800001C
7000001C
7000001E
F000001E
F000001E
F000001E
F000001E
F000001E
7000001E
7000001C
7800001C
7800003C
7800003C
3C000078
3C000078
1E0000F0
0F0001F0
0FC007E0
07F83FC0
01FFFF80
00FFFE00
001FF000
ENDCHAR
STARTCHAR 00D5
ENCODING 213
SWIDTH 720 0
DWIDTH 33 0
BBX 31 42 1 0
BITMAP
00180000
003F0E00
007FCE00
0073FE00
0060FC00
00003000
00000000
00000000
00000000
001FF000
00FFFE00
01FFFF00
07F83FC0
0FC007E0
0F0001F0
1E0000F0
3C000078
3C000078
7800003C
7800003C
7800001C
7000001C
7000001E
F000001E
F000001E
F000001E
F000001E
F000001E
7000001E
7000001C
7800001C
7800003C
7800003C
3C000078
3C000078
1E0000F0
0F0001F0
0FC007E0
07F83FC0
01FFFF80
00FFFE00
001FF000
ENDCHAR
STARTCHAR 00D6
ENCODING 214
SWIDTH 720 0
DWIDTH 33 0
BBX 31 41 1 0
BITMAP
00783C00
00783C00
00783C00
00783C00
00000000
00000000
00000000
00000000
001FF000
00FFFE00
01FFFF00
07F83FC0
0FC007E0
0F0001F0
1E0000F0
3C000078
3C000078
7800003C
7800003C
7800001C
7000001C
7000001E
F000001E
F000001E
F000001E
F000001E
F000001E
7000001E
7000001C
7800001C
7800003C
7800003C
3C000078
3C000078
1E0000F0
0F0001F0
0FC007E0
07F83FC0
01FFFF80
00FFFE00
001FF000
ENDCHAR
STARTCHAR 00D7
ENCODING 215
SWIDTH 480 0
DWIDTH 22 0
BBX 16 17 3 8
BITMAP
4002
E007
F00F
781E
3C3C
1E78
0FF0
07E0
03C0
07E0
0FF0
1E78
3C3C
781E
F00F
E007
4002
ENDCHAR
STARTCHAR 00D8
ENCODING 216
SWIDTH 720 0
DWIDTH 33 0
BBX 31 33 1 0
BITMAP
001FF004
00FFFE0E
01FFFF9E
07F83FFC
0FC007F8
0F0001F0
1E0001F0
3C0003F8
3C0007F8
78000FBC
78000F3C
78001E1C
70003C1C
7000781E
F000F01E
F001E01E
F003C01E
F007801E
F00F001E
701E001E
703C001C
7078001C
78F0003C
79E0003C
3FC00078
3F800078
1F0000F0
1F0001F0
3FC007E0
7FF83FC0
F9FFFF00
70FFFE00
201FF000
ENDCHAR
STARTCHAR 00D9
ENCODING 217
SWIDTH 698 0
DWIDTH 32 0
BBX 26 44 3 0
BITMAP
00300000
00380000
00380000
001C0000
001C0000
001C0000
000E0000
00000000
00000000
00000000
00000000
F00001C0
F00001C0
F00001C0
F00001C0
F00001C0
F00001C0
F00001C0
F00001C0
F00001C0
F00001C0
F00001C0
F00001C0
F00001C0
F00001C0
F00001C0
F00001C0
F00001C0
F00001C0
F00001C0
F00001C0
F00001C0
F00003C0
F00003C0
F00003C0
70000380
78000780
3C000F80
3E001F00
1F003E00
0FE1FC00
07FFF800
01FFF000
007F8000
ENDCHAR
STARTCHAR 00DA
ENCODING 218
SWIDTH 698 0
DWIDTH 32 0
BBX 26 44 3 0
BITMAP
00038000
00070000
00070000
00070000
000E0000
000E0000
000C0000
00000000
00000000
00000000
00000000
F00001C0
F00001C0
F00001C0
F00001C0
F00001C0
F00001C0
F00001C0
F00001C0
F00001C0
F00001C0
F00001C0
F00001C0
F00001C0
F00001C0
F00001C0
F00001C0
F00001C0
F00001C0
F00001C0
F00001C0
F00001C0
F00003C0
F00003C0
F00003C0
70000380
78000780
3C000F80
3E001F00
1F003E00
0FE1FC00
07FFF800
01FFF000
007F8000
ENDCHAR
STARTCHAR 00DB
ENCODING 219
SWIDTH 698 0
DWIDTH 32 0
BBX 26 43 3 0
BITMAP
001E0000
003F0000
007F8000
0073C000
00E1C000
01C0E000
00000000
00000000
00000000
00000000
F00001C0
F00001C0
F00001C0
F00001C0
F00001C0
F00001C0
F00001C0
F00001C0
F00001C0
F00001C0
F00001C0
F00001C0
F00001C0
F00001C0
F00001C0
F00001C0
F00001C0
F00001C0
F00001C0
F00001C0
F00001C0
F00003C0
F00003C0
F00003C0
70000380
78000780
3C000F80
3E001F00
1F003E00
0FE1FC00
07FFF800
01FFF000
007F8000
ENDCHAR
STARTCHAR 00DC
ENCODING 220
SWIDTH 698 0
DWIDTH 32 0
BBX 26 42 3 0
BITMAP
01E0E000
01E0E000
01E0E000
01E0E000
00000000
00000000
00000000
00000000
00000000
F00001C0
F00001C0
F00001C0
F00001C0
F00001C0
F00001C0
F00001C0
F00001C0
F00001C0
F00001C0
F00001C0
F00001C0
F00001C0
F00001C0
F00001C0
F00001C0
F00001C0
F00001C0
F00001C0
F00001C0
F00001C0
F00003C0
F00003C0
F00003C0
70000380
78000780
3C000F80
3E001F00
1F003E00
0FE1FC00
07FFF800
01FFF000
007F8000
ENDCHAR
STARTCHAR 00DD
ENCODING 221
SWIDTH 545 0
DWIDTH 25 0
BBX 25 44 0 0
BITMAP
00070000
00070000
00070000
000E0000
000E0000
001C0000
001C0000
00000000
00000000
00000000
00000000
F0000780
78000780
78000F00
3C000E00
1E001E00
1E003C00
0F003C00
0F007800
07807800
0780F000
03C0E000
01E1E000
01E3C000
00F3C000
00F78000
007F8000
007F0000
003E0000
001E0000
001C0000
001C0000
001C0000
001C0000
001C0000
001C0000
001C0000
001C0000
001C0000
001C0000
001C0000
001C0000
001C0000
001C0000
ENDCHAR
STARTCHAR 00DE
ENCODING 222
SWIDTH 589 0
DWIDTH 27 0
BBX 23 33 3 0
BITMAP
F00000
F00000
F00000
F00000
F00000
F00000
FFFF00
FFFFC0
FFFFE0
F003F0
F000F8
F0007C
F0003C
F0001C
F0001E
F0001E
F0001E
F0001E
F0001E
F0001C
F0003C
F0007C
F000F8
F003F0
FFFFE0
FFFFC0
FFFF00
F00000
F00000
F00000
F00000
F00000
F00000
ENDCHAR
STARTCHAR 00DF
ENCODING 223
SWIDTH 589 0
DWIDTH 27 0
BBX 22 33 3 0
BITMAP
03F800
0FFE00
1FFF00
3F1F80
7C07C0
7803C0
F001E0
F001E0
F001E0
F001E0
F001E0
F001C0
F003C0
F00F80
F07F00
F07F00
F07FC0
F00FE0
F001F0
F00078
F00038
F00038
F0003C
F0003C
F0003C
F00038
F00078
F00078
F001F0
F18FF0
F1FFE0
F1FFC0
F1FE00
ENDCHAR
STARTCHAR 00E0
ENCODING 224
SWIDTH 545 0
DWIDTH 25 0
BBX 21 35 2 0
BITMAP
01C000
00C000
00E000
00E000
007000
007000
007000
000000
000000
000000
01FE00
07FF80
1FFFC0
3F03E0
3C00F0
780070
700070
000078
000078
0003F8
01FFF8
0FFFF8
3FF878
7E0078
780078
F00078
E00078
E000F8
E000F8
F001F8
F003F8
7C0FB8
3FFF38
1FFC38
07F000
ENDCHAR
STARTCHAR 00E1
ENCODING 225
SWIDTH 545 0
DWIDTH 25 0
BBX 21 35 2 0
BITMAP
000E00
000E00
001C00
001C00
001800
003800
003800
000000
000000
000000
01FE00
07FF80
1FFFC0
3F03E0
3C00F0
780070
700070
000078
000078
0003F8
01FFF8
0FFFF8
3FF878
7E0078
780078
F00078
E00078
E000F8
E000F8
F001F8
F003F8
7C0FB8
3FFF38
1FFC38
07F000
ENDCHAR
STARTCHAR 00E2
ENCODING 226
SWIDTH 545 0
DWIDTH 25 0
BBX 21 34 2 0
BITMAP
007800
00FC00
01FE00
03CF00
038780
070380
000000
000000
000000
01FE00
07FF80
1FFFC0
3F03E0
3C00F0
780070
700070
000078
000078
0003F8
01FFF8
0FFFF8
3FF878
7E0078
780078
F00078
E00078
E000F8
E000F8
F001F8
F003F8
7C0FB8
3FFF38
1FFC38
07F000
ENDCHAR
STARTCHAR 00E3
ENCODING 227
SWIDTH 545 0
DWIDTH 25 0
BBX 21 34 2 0
BITMAP
018000
07E0C0
07F8C0
0E7FC0
0E1FC0
000300
000000
000000
000000
01FE00
07FF80
1FFFC0
3F03E0
3C00F0
780070
700070
000078
000078
0003F8
01FFF8
0FFFF8
3FF878
7E0078
780078
F00078
E00078
E000F8
E000F8
F001F8
F003F8
7C0FB8
3FFF38
1FFC38
07F000
ENDCHAR
STARTCHAR 00E4
ENCODING 228
SWIDTH 545 0
DWIDTH 25 0
BBX 21 33 2 0
BITMAP
078380
078380
078380
078380
000000
000000
000000
000000
01FE00
07FF80
1FFFC0
3F03E0
3C00F0
780070
700070
000078
000078
0003F8
01FFF8
0FFFF8
3FF878
7E0078
780078
F00078
E00078
E000F8
E000F8
F001F8
F003F8
7C0FB8
3FFF38
1FFC38
07F038
ENDCHAR
STARTCHAR 00E5
ENCODING 229
SWIDTH 545 0
DWIDTH 25 0
BBX 21 37 2 0
BITMAP
007800
01FE00
01FE00
038700
038300
038300
038700
01FE00
01FE00
007800
000000
000000
01FE00
07FF80
1FFFC0
3F03E0
3C00F0
780070
700070
000078
000078
0003F8
01FFF8
0FFFF8
3FF878
7E0078
780078
F00078
E00078
E000F8
E000F8
F001F8
F003F8
7C0FB8
3FFF38
1FFC38
07F000
ENDCHAR
STARTCHAR 00E6
ENCODING 230
SWIDTH 938 0
DWIDTH 43 0
BBX 39 25 2 0
BITMAP
01FE007F00
07FF81FFC0
1FFFC7FFF0
3F07E7C1F0
3C01FF0078
7800FE003C
70007C001C
10007C001E
000078001E
000078000E
001FF8000E
0FFFFFFFFE
3FFFFFFFFE
7F007FFFFE
7800780000
F000780000
E000780000
E0007C0000
E000FC001C
E001FE003C
F003CF007C
780F8FC1F8
3FFF07FFF0
1FFE01FFC0
07F0007F00
ENDCHAR
STARTCHAR 00E7
ENCODING 231
SWIDTH 545 0
DWIDTH 25 0
BBX 22 36 2 -11
BITMAP
00FE00
07FF80
0FFFE0
1F83F0
3E00F8
7C0078
78003C
700020
F00000
F00000
F00000
E00000
E00000
E00000
F00000
F00000
F00000
700000
780038
7C0078
3E00F8
1F83F0
0FFFE0
07FFC0
01FE00
003800
003000
007800
007C00
001C00
000E00
000E00
001E00
00FC00
00F800
007000
ENDCHAR
STARTCHAR 00E8
ENCODING 232
SWIDTH 589 0
DWIDTH 27 0
BBX 23 35 2 0
BITMAP
00E000
00E000
007000
007000
007000
003800
003800
000000
000000
000000
00FE00
07FFC0
0FFFE0
1F83F0
3E00F8
3C0078
78003C
70001C
F0001C
F0001E
F0001E
FFFFFE
FFFFFE
FFFFFE
E00000
F00000
F00000
700000
78001C
7C003C
3E00F8
1F83F0
0FFFE0
07FFC0
00FE00
ENDCHAR
STARTCHAR 00E9
ENCODING 233
SWIDTH 589 0
DWIDTH 27 0
BBX 23 35 2 0
BITMAP
000700
000700
000E00
000E00
001C00
001C00
001C00
000000
000000
000000
00FE00
07FFC0
0FFFE0
1F83F0
3E00F8
3C0078
78003C
70001C
F0001C
F0001E
F0001E
FFFFFE
FFFFFE
FFFFFE
E00000
F00000
F00000
700000
78001C
7C003C
3E00F8
1F83F0
0FFFE0
07FFC0
00FE00
ENDCHAR
STARTCHAR 00EA
ENCODING 234
SWIDTH 589 0
DWIDTH 27 0
BBX 23 34 2 0
BITMAP
007C00
007E00
00EE00
01C700
038380
0783C0
000000
000000
000000
00FE00
07FFC0
0FFFE0
1F83F0
3E00F8
3C0078
78003C
70001C
F0001C
F0001E
F0001E
FFFFFE
FFFFFE
FFFFFE
E00000
F00000
F00000
700000
78001C
7C003C
3E00F8
1F83F0
0FFFE0
07FFC0
00FE00
ENDCHAR
STARTCHAR 00EB
ENCODING 235
SWIDTH 589 0
DWIDTH 27 0
BBX 23 33 2 0
BITMAP
0783C0
0783C0
0783C0
0783C0
000000
000000
000000
000000
00FE00
07FFC0
0FFFE0
1F83F0
3E00F8
3C0078
78003C
70001C
F0001C
F0001E
F0001E
FFFFFE
FFFFFE
FFFFFE
E00000
F00000
F00000
700000
78001C
7C003C
3E00F8
1F83F0
0FFFE0
07FFC0
00FE00
ENDCHAR
STARTCHAR 00EC
ENCODING 236
SWIDTH 240 0
DWIDTH 11 0
BBX 6 36 1 0
BITMAP
E0
70
70
70
38
38
1C
00
00
00
00
1C
1C
1C
1C
1C
1C
1C
1C
1C
1C
1C
1C
1C
1C
1C
1C
1C
1C
1C
1C
1C
1C
1C
1C
1C
ENDCHAR
STARTCHAR 00ED
ENCODING 237
SWIDTH 240 0
DWIDTH 11 0
BBX 5 36 4 0
BITMAP
18
38
38
70
70
60
E0
00
00
00
00
E0
E0
E0
E0
E0
E0
E0
E0
E0
E0
E0
E0
E0
E0
E0
E0
E0
E0
E0
E0
E0
E0
E0
E0
E0
ENDCHAR
STARTCHAR 00EE
ENCODING 238
SWIDTH 240 0
DWIDTH 11 0
BBX 13 35 -1 0
BITMAP
0F00
0F80
1DC0
38E0
78F0
F078
0000
0000
0000
0000
0700
0700
0700
0700
0700
0700
0700
0700
0700
0700
0700
0700
0700
0700
0700
0700
0700
0700
0700
0700
0700
0700
0700
0700
0700
ENDCHAR
STARTCHAR 00EF
ENCODING 239
SWIDTH 240 0
DWIDTH 11 0
BBX 13 33 -1 0
BITMAP
F078
F078
F078
F078
0000
0000
0000
0000
0700
0700
0700
0700
0700
0700
0700
0700
0700
0700
0700
0700
0700
0700
0700
0700
0700
0700
0700
0700
0700
0700
0700
0700
0700
ENDCHAR
STARTCHAR 00F0
ENCODING 240
SWIDTH 589 0
DWIDTH 27 0
BBX 23 36 2 1
BITMAP
0000C0
0061E0
00FFC0
00FF80
001F80
000FC0
001FE0
003CF0
001870
000078
000038
00003C
01FE1C
07FF9C
0FFFFC
1F03FC
3C00FE
78007E
78003E
F0001E
F0001E
E0001E
E0001E
E0001E
E0001E
E0001E
E0001E
F0001C
F0001C
78003C
780078
3C00F8
1F83F0
0FFFE0
07FFC0
01FE00
ENDCHAR
STARTCHAR 00F1
ENCODING 241
SWIDTH 589 0
DWIDTH 27 0
BBX 21 34 3 0
BITMAP
030000
0FE1C0
0FF1C0
0C7F80
0C1F80
000600
000000
000000
000000
E0FE00
E3FF80
E7FFC0
EF87E0
FE01F0
F800F0
F80078
F00078
F00038
F00038
F00038
F00038
F00038
F00038
F00038
F00038
F00038
F00038
F00038
F00038
F00038
F00038
F00038
F00038
F00038
ENDCHAR
STARTCHAR 00F2
ENCODING 242
SWIDTH 589 0
DWIDTH 27 0
BBX 23 35 2 0
BITMAP
01C000
00E000
00E000
006000
007000
007000
003800
000000
000000
000000
00FE00
07FFC0
0FFFE0
1F83F0
3E00F8
7C007C
78003C
70001C
F0001E
F0001E
F0000E
E0000E
E0000E
E0000E
F0000E
F0001E
F0001E
70001C
78003C
7C007C
3E00F8
1F83F0
0FFFE0
07FFC0
00FE00
ENDCHAR
STARTCHAR 00F3
ENCODING 243
SWIDTH 589 0
DWIDTH 27 0
BBX 23 35 2 0
BITMAP
000600
000E00
000E00
001C00
001C00
001800
003800
000000
000000
000000
00FE00
07FFC0
0FFFE0
1F83F0
3E00F8
7C007C
78003C
70001C
F0001E
F0001E
F0000E
E0000E
E0000E
E0000E
F0000E
F0001E
F0001E
70001C
78003C
7C007C
3E00F8
1F83F0
0FFFE0
07FFC0
00FE00
ENDCHAR
STARTCHAR 00F4
ENCODING 244
SWIDTH 589 0
DWIDTH 27 0
BBX 23 34 2 0
BITMAP
007C00
007E00
00EE00
01C700
038380
0783C0
000000
000000
000000
00FE00
07FFC0
0FFFE0
1F83F0
3E00F8
7C007C
78003C
70001C
F0001E
F0001E
F0000E
E0000E
E0000E
E0000E
F0000E
F0001E
F0001E
70001C
78003C
7C007C
3E00F8
1F83F0
0FFFE0
07FFC0
00FE00
ENDCHAR
STARTCHAR 00F5
ENCODING 245
SWIDTH 589 0
DWIDTH 27 0
BBX 23 34 2 0
BITMAP
018000
07F0E0
07F8E0
063FC0
060FC0
000300
000000
000000
000000
00FE00
07FFC0
0FFFE0
1F83F0
3E00F8
7C007C
78003C
70001C
F0001E
F0001E
F0000E
E0000E
E0000E
E0000E
F0000E
F0001E
F0001E
70001C
78003C
7C007C
3E00F8
1F83F0
0FFFE0
07FFC0
00FE00
ENDCHAR
STARTCHAR 00F6
ENCODING 246
SWIDTH 589 0
DWIDTH 27 0
BBX 23 33 2 0
BITMAP
0783C0
0783C0
0783C0
0783C0
000000
000000
000000
000000
00FE00
07FFC0
0FFFE0
1F83F0
3E00F8
7C007C
78003C
70001C
F0001E
F0001E
F0000E
E0000E
E0000E
E0000E
F0000E
F0001E
F0001E
70001C
78003C
7C007C
3E00F8
1F83F0
0FFFE0
07FFC0
00FE00
ENDCHAR
STARTCHAR 00F7
ENCODING 247
SWIDTH 545 0
DWIDTH 25 0
BBX 19 17 3 8
BITMAP
00E000
00E000
00E000
00E000
000000
000000
000000
FFFFE0
FFFFE0
FFFFE0
000000
000000
000000
00E000
00E000
00E000
00E000
ENDCHAR
STARTCHAR 00F8
ENCODING 248
SWIDTH 589 0
DWIDTH 27 0
BBX 25 25 1 0
BITMAP
007F0200
03FFE700
07FFFF80
0FC1FF00
1F007E00
1E003E00
3C007E00
3800FF00
7801EF00
7803CF00
78078700
700F0700
701E0700
70380700
70700700
78E00F00
79C00F00
7B800E00
3F001E00
3E003E00
3F007C00
7FC1F800
FFFFF000
73FFE000
207F0000
ENDCHAR
STARTCHAR 00F9
ENCODING 249
SWIDTH 589 0
DWIDTH 27 0
BBX 21 36 3 0
BITMAP
01C000
01C000
00C000
00E000
00E000
007000
007000
000000
000000
000000
000000
E00038
E00038
E00038
E00038
E00038
E00038
E00038
E00038
E00038
E00038
E00038
E00038
E00038
E00038
E00038
E00078
F00078
F00078
7000F8
7800F8
7C01F8
3F0FF8
1FFFB8
0FFE38
03F838
ENDCHAR
STARTCHAR 00FA
ENCODING 250
SWIDTH 589 0
DWIDTH 27 0
BBX 21 36 3 0
BITMAP
001C00
001C00
001800
003800
003800
007000
007000
000000
000000
000000
000000
E00038
E00038
E00038
E00038
E00038
E00038
E00038
E00038
E00038
E00038
E00038
E00038
E00038
E00038
E00038
E00078
F00078
F00078
7000F8
7800F8
7C01F8
3F0FF8
1FFFB8
0FFE38
03F838
ENDCHAR
STARTCHAR 00FB
ENCODING 251
SWIDTH 589 0
DWIDTH 27 0
BBX 21 35 3 0
BITMAP
00F000
01F800
01DC00
039E00
070F00
0E0780
000000
000000
000000
000000
E00038
E00038
E00038
E00038
E00038
E00038
E00038
E00038
E00038
E00038
E00038
E00038
E00038
E00038
E00038
E00078
F00078
F00078
7000F8
7800F8
7C01F8
3F0FF8
1FFFB8
0FFE38
03F838
ENDCHAR
STARTCHAR 00FC
ENCODING 252
SWIDTH 589 0
DWIDTH 27 0
BBX 21 33 3 0
BITMAP
0F0780
0F0780
0F0780
0F0780
000000
000000
000000
000000
E00038
E00038
E00038
E00038
E00038
E00038
E00038
E00038
E00038
E00038
E00038
E00038
E00038
E00038
E00038
E00078
F00078
F00078
7000F8
7800F8
7C01F8
3F0FF8
1FFFB8
0FFE38
03F838
ENDCHAR
STARTCHAR 00FD
ENCODING 253
SWIDTH 523 0
DWIDTH 24 0
BBX 22 47 1 -11
BITMAP
000E00
000E00
001C00
001C00
001C00
003800
003800
000000
000000
000000
000000
F0001C
F0003C
700038
780038
380078
3C0070
3C0070
1C00F0
1E00E0
0E01E0
0F01C0
0F01C0
0703C0
078380
038380
03C780
03C700
01C700
01EF00
00EE00
00FE00
00FC00
007C00
007C00
003800
003800
007800
007000
00F000
00E000
00E000
01E000
01C000
01C000
03C000
038000
ENDCHAR
STARTCHAR 00FE
ENCODING 254
SWIDTH 589 0
DWIDTH 27 0
BBX 22 43 3 -10
BITMAP
F00000
F00000
F00000
F00000
F00000
F00000
F00000
F00000
F0FE00
F3FF80
F7FFC0
FF87E0
FC01F0
F800F8
F80078
F0003C
F0003C
E0003C
E0001C
E0001C
E0001C
E0001C
E0001C
E0003C
F0003C
F0003C
F80078
F800F8
FC01F0
FF07E0
F7FFC0
F3FF80
F0FE00
F00000
F00000
F00000
F00000
F00000
F00000
F00000
F00000
F00000
F00000
ENDCHAR
STARTCHAR 00FF
ENCODING 255
SWIDTH 523 0
DWIDTH 24 0
BBX 22 44 1 -11
BITMAP
0783C0
0783C0
0783C0
0783C0
000000
000000
000000
000000
F0001C
F0003C
700038
780038
380078
3C0070
3C0070
1C00F0
1E00E0
0E01E0
0F01C0
0F01C0
0703C0
078380
038380
03C780
03C700
01C700
01EF00
00EE00
00FE00
00FC00
007C00
007C00
003800
003800
007800
007000
00F000
00E000
00E000
01E000
01C000
01C000
03C000
038000
ENDCHAR
ENDFONT
